<svg id="Capa_1" data-name="Capa 1" xmlns="http://www.w3.org/2000/svg" viewBox="0 0 488.53 224.79"><defs><style>.cls-1{fill:#878787;}.cls-2,.cls-4,.cls-5{fill:#202349;}.cls-2,.cls-3{fill-rule:evenodd;}.cls-3,.cls-6{fill:#e72586;}.cls-3,.cls-5,.cls-6{stroke:#fff;stroke-miterlimit:10;}</style></defs><title>coneexion</title><path class="cls-1" d="M279.71,481.36v2a1.07,1.07,0,0,0,1.08,1.07h3a.27.27,0,1,1,0,.54h-3a1.62,1.62,0,0,1-1.63-1.61v-3.51a2.11,2.11,0,0,1,2.11-2.09H283a1.81,1.81,0,0,1,0,3.61Zm0-.54H283a1.27,1.27,0,0,0,0-2.53h-1.71a1.56,1.56,0,0,0-1.56,1.55Z" transform="translate(-64 -308.55)"/><path class="cls-1" d="M299.1,475.57v7.73a1.67,1.67,0,0,1-1.68,1.66h-2.05a2.06,2.06,0,0,1-2.07-2v-2.78a2.06,2.06,0,0,1,2.07-2.05h3.17v-2.51a.28.28,0,0,1,.56,0Zm-.56,3.06h-3.17a1.51,1.51,0,0,0-1.52,1.5v2.78a1.52,1.52,0,0,0,1.52,1.51h2.05a1.12,1.12,0,0,0,1.12-1.12Z" transform="translate(-64 -308.55)"/><path class="cls-1" d="M312.37,478.35v6.34a.28.28,0,0,1-.28.27h-2.41a2.07,2.07,0,0,1-2.08-2v-4.56a.28.28,0,0,1,.56,0v4.56a1.52,1.52,0,0,0,1.52,1.51h2.14v-6.07a.27.27,0,0,1,.27-.27A.28.28,0,0,1,312.37,478.35Z" transform="translate(-64 -308.55)"/><path class="cls-1" d="M326.68,484.69a.28.28,0,0,1-.28.27H323a2.07,2.07,0,0,1-2.08-2v-2.78a2.07,2.07,0,0,1,2.08-2.05h3.44a.28.28,0,0,1,.28.27.29.29,0,0,1-.28.28H323a1.51,1.51,0,0,0-1.52,1.5v2.78a1.52,1.52,0,0,0,1.52,1.51h3.44A.27.27,0,0,1,326.68,484.69Z" transform="translate(-64 -308.55)"/><path class="cls-1" d="M341,479.69v3.61a1.67,1.67,0,0,1-1.68,1.66h-2a2.05,2.05,0,1,1,0-4.1h3.17v-1.17a1.07,1.07,0,0,0-1.08-1.06h-2.48a.29.29,0,0,1-.28-.28.28.28,0,0,1,.28-.27h2.48A1.62,1.62,0,0,1,341,479.69Zm-.55,1.71h-3.17a1.51,1.51,0,1,0,0,3h2a1.13,1.13,0,0,0,1.13-1.12Z" transform="translate(-64 -308.55)"/><path class="cls-1" d="M353.52,478.35a.29.29,0,0,1-.28.28h-1.46v4.67a1.13,1.13,0,0,0,1.13,1.12.27.27,0,1,1,0,.54,1.67,1.67,0,0,1-1.68-1.66v-4.67h-1.45a.28.28,0,0,1-.28-.28.27.27,0,0,1,.28-.27h1.45v-2.41a.28.28,0,0,1,.28-.27.27.27,0,0,1,.27.27v2.41h1.46A.28.28,0,0,1,353.52,478.35Z" transform="translate(-64 -308.55)"/><path class="cls-1" d="M362.05,476.75v-1.18a.27.27,0,0,1,.27-.27.28.28,0,0,1,.28.27v1.18a.29.29,0,0,1-.28.28A.27.27,0,0,1,362.05,476.75Zm.55,1.6v6.34a.28.28,0,0,1-.28.27.27.27,0,0,1-.27-.27v-6.34a.27.27,0,0,1,.27-.27A.28.28,0,0,1,362.6,478.35Z" transform="translate(-64 -308.55)"/><path class="cls-1" d="M376.58,478.45l-2.46,6.34a.28.28,0,0,1-.26.17.29.29,0,0,1-.26-.17l-2.46-6.34a.28.28,0,0,1,.52-.2l2.2,5.68,2.2-5.68a.28.28,0,0,1,.36-.15A.27.27,0,0,1,376.58,478.45Z" transform="translate(-64 -308.55)"/><path class="cls-1" d="M390.35,479.69v3.61a1.67,1.67,0,0,1-1.68,1.66h-2.05a2.05,2.05,0,1,1,0-4.1h3.17v-1.17a1.06,1.06,0,0,0-1.07-1.06h-2.48a.28.28,0,0,1-.28-.28.27.27,0,0,1,.28-.27h2.48A1.62,1.62,0,0,1,390.35,479.69Zm-.56,1.71h-3.17a1.51,1.51,0,1,0,0,3h2.05a1.12,1.12,0,0,0,1.12-1.12Z" transform="translate(-64 -308.55)"/><path class="cls-1" d="M403.67,479.75a.28.28,0,0,1-.28.27h-4.26a.27.27,0,0,1,0-.54h4.26A.28.28,0,0,1,403.67,479.75Z" transform="translate(-64 -308.55)"/><path class="cls-1" d="M412.74,481.36v2a1.08,1.08,0,0,0,1.08,1.07h3a.27.27,0,1,1,0,.54h-3a1.62,1.62,0,0,1-1.63-1.61v-3.51a2.11,2.11,0,0,1,2.11-2.09H416a1.81,1.81,0,1,1,0,3.61Zm0-.54H416a1.27,1.27,0,0,0,0-2.53H414.3a1.56,1.56,0,0,0-1.56,1.55Z" transform="translate(-64 -308.55)"/><path class="cls-1" d="M435.3,479.74v4.95a.27.27,0,0,1-.27.27.28.28,0,0,1-.28-.27v-4.95a1.12,1.12,0,0,0-1.12-1.11h-1a1.52,1.52,0,0,0-1.52,1.5v4.56a.28.28,0,0,1-.55,0v-4.95a1.12,1.12,0,0,0-1.13-1.11h-1a1.51,1.51,0,0,0-1.52,1.5v4.56a.28.28,0,0,1-.55,0v-4.56a2.06,2.06,0,0,1,2.07-2.05h1a1.69,1.69,0,0,1,1.49.9,2.08,2.08,0,0,1,1.71-.9h1A1.66,1.66,0,0,1,435.3,479.74Z" transform="translate(-64 -308.55)"/><path class="cls-1" d="M449.62,480.13v2.78a2.06,2.06,0,0,1-2.07,2h-3.17v2.53a.28.28,0,0,1-.55,0v-7.75a1.66,1.66,0,0,1,1.67-1.66h2.05A2.06,2.06,0,0,1,449.62,480.13Zm-.55,0a1.51,1.51,0,0,0-1.52-1.5H445.5a1.12,1.12,0,0,0-1.12,1.11v4.68h3.17a1.52,1.52,0,0,0,1.52-1.51Z" transform="translate(-64 -308.55)"/><path class="cls-1" d="M462.9,478.35a.29.29,0,0,1-.28.28h-2.41a1.51,1.51,0,0,0-1.52,1.5v4.56a.28.28,0,0,1-.56,0v-4.56a2.07,2.07,0,0,1,2.08-2.05h2.41A.27.27,0,0,1,462.9,478.35Z" transform="translate(-64 -308.55)"/><path class="cls-1" d="M471.49,481.36v2a1.08,1.08,0,0,0,1.08,1.07h3a.27.27,0,0,1,0,.54h-3a1.62,1.62,0,0,1-1.63-1.61v-3.51a2.11,2.11,0,0,1,2.11-2.09h1.71a1.81,1.81,0,1,1,0,3.61Zm0-.54h3.27a1.27,1.27,0,0,0,0-2.53h-1.71a1.56,1.56,0,0,0-1.56,1.55Z" transform="translate(-64 -308.55)"/><path class="cls-1" d="M490.71,482.48v.87a1.62,1.62,0,0,1-1.63,1.61h-2.16a2.11,2.11,0,0,1-1.8-1l.47-.29a1.57,1.57,0,0,0,1.33.74h2.16a1.08,1.08,0,0,0,1.08-1.07v-.87a1.13,1.13,0,0,0-1.13-1.12h-2.14a1.81,1.81,0,1,1,0-3.61h2a2.11,2.11,0,0,1,1.8,1l-.47.29a1.57,1.57,0,0,0-1.33-.74h-2a1.27,1.27,0,0,0,0,2.53H489A1.67,1.67,0,0,1,490.71,482.48Z" transform="translate(-64 -308.55)"/><path class="cls-1" d="M504.66,479.69v3.61A1.67,1.67,0,0,1,503,485h-2a2.05,2.05,0,1,1,0-4.1h3.17v-1.17a1.06,1.06,0,0,0-1.07-1.06h-2.49a.28.28,0,0,1-.27-.28.27.27,0,0,1,.27-.27H503A1.62,1.62,0,0,1,504.66,479.69Zm-.55,1.71h-3.17a1.51,1.51,0,1,0,0,3h2a1.13,1.13,0,0,0,1.13-1.12Z" transform="translate(-64 -308.55)"/><path class="cls-1" d="M517.94,478.35a.29.29,0,0,1-.28.28h-2.41a1.51,1.51,0,0,0-1.52,1.5v4.56a.28.28,0,0,1-.56,0v-4.56a2.07,2.07,0,0,1,2.08-2.05h2.41A.28.28,0,0,1,517.94,478.35Z" transform="translate(-64 -308.55)"/><path class="cls-1" d="M526.45,476.75v-1.18a.28.28,0,0,1,.28-.27.27.27,0,0,1,.27.27v1.18a.28.28,0,1,1-.55,0Zm.55,1.6v6.34a.27.27,0,0,1-.27.27.28.28,0,0,1-.28-.27v-6.34a.28.28,0,0,1,.28-.27A.27.27,0,0,1,527,478.35Z" transform="translate(-64 -308.55)"/><path class="cls-1" d="M541.32,479.69v3.61a1.66,1.66,0,0,1-1.67,1.66h-2a2.05,2.05,0,1,1,0-4.1h3.17v-1.17a1.06,1.06,0,0,0-1.07-1.06h-2.49a.28.28,0,0,1-.27-.28.27.27,0,0,1,.27-.27h2.49A1.62,1.62,0,0,1,541.32,479.69Zm-.55,1.71H537.6a1.51,1.51,0,1,0,0,3h2a1.12,1.12,0,0,0,1.12-1.12Z" transform="translate(-64 -308.55)"/><path class="cls-1" d="M551,477.06v7.63a.28.28,0,0,1-.28.27.27.27,0,0,1-.27-.27v-7.63a1.12,1.12,0,0,0-1.13-1.11.28.28,0,1,1,0-.55A1.68,1.68,0,0,1,551,477.06Z" transform="translate(-64 -308.55)"/><path class="cls-2" d="M178.14,525.89q-3.85.29-7.77.29a101,101,0,0,1-86.5-48.88,28.31,28.31,0,0,0,16.42-7.12,83.31,83.31,0,0,0,70.08,38.29q1.65,0,3.3-.06v0a36,36,0,0,0,4.47,17.43ZM69.43,423.21A101,101,0,0,1,163,324.53a41.19,41.19,0,0,0-2.48,14.1c0,1.31.06,2.62.18,3.9a83.25,83.25,0,0,0-73.52,78.66,28.61,28.61,0,0,0-17.79,2Z" transform="translate(-64 -308.55)"/><path class="cls-3" d="M81.36,432.14A16.86,16.86,0,1,1,64.5,449,16.86,16.86,0,0,1,81.36,432.14Z" transform="translate(-64 -308.55)"/><path class="cls-3" d="M201.8,309.05a29.58,29.58,0,1,1-29.58,29.58A29.58,29.58,0,0,1,201.8,309.05Z" transform="translate(-64 -308.55)"/><path class="cls-3" d="M209.85,484.08a24.38,24.38,0,1,1-24.38,24.38A24.38,24.38,0,0,1,209.85,484.08Z" transform="translate(-64 -308.55)"/><path class="cls-4" d="M138.81,397.48c6.18,0,12.1,2.47,17.48,5.56a1.06,1.06,0,0,1,.26,1.59l-4.76,6.79a1,1,0,0,1-1.59.27A19.31,19.31,0,0,0,138.9,408c-27.8,0-27.8,43.42,0,43.42,5.74,0,9.27-1.76,11.39-3.53a1,1,0,0,1,1.5.18l4.85,6.7a1.12,1.12,0,0,1-.26,1.59c-4.77,3.71-9.89,5.56-17.57,5.56-21.26,0-31.86-16.15-31.86-32.21S117.55,397.48,138.81,397.48Z" transform="translate(-64 -308.55)"/><path class="cls-5" d="M184.09,396c16.08,0,32.15,10.89,32.15,32.68s-16.07,32.69-32.15,32.69-32.24-10.9-32.24-32.69S167.93,396,184.09,396Zm0,54.56c10.81,0,21.7-7.23,21.7-21.88s-10.89-21.88-21.7-21.88-21.7,7.24-21.7,21.88S173.2,450.53,184.09,450.53Z" transform="translate(-64 -308.55)"/><path class="cls-4" d="M271,457a1.08,1.08,0,0,1-1.16,1.16h-1.34a3,3,0,0,1-1.88-.8l-34.2-36.71c-.45-.44-.71-.62-1.07-.62s-.63.45-.63,1.34V457a1.07,1.07,0,0,1-1.16,1.16h-8.39A1.07,1.07,0,0,1,220,457V396.82a1.08,1.08,0,0,1,1.16-1.16h1.25a2.71,2.71,0,0,1,2,.89l45.82,49.3a3.48,3.48,0,0,1,.8,2Zm0-24.74c0,.72-.36.81-.8.27l-9.11-9.82a3,3,0,0,1-.81-2V396.82a1.08,1.08,0,0,1,1.16-1.16h8.4a1.08,1.08,0,0,1,1.16,1.16Z" transform="translate(-64 -308.55)"/><path class="cls-6" d="M278,404.5v-7.68a1.08,1.08,0,0,1,1.16-1.16h38.13a1.08,1.08,0,0,1,1.16,1.16v7.68a1.08,1.08,0,0,1-1.16,1.16H279.16A1.08,1.08,0,0,1,278,404.5Zm0,18.58a1.08,1.08,0,0,1,1.16-1.17h38.13a1.08,1.08,0,0,1,1.16,1.17v7.68a1.08,1.08,0,0,1-1.16,1.16H279.16a1.08,1.08,0,0,1-1.16-1.16Zm1.16,25.09h38.13a1.08,1.08,0,0,1,1.16,1.16V457a1.07,1.07,0,0,1-1.16,1.16H279.16A1.07,1.07,0,0,1,278,457v-7.68A1.08,1.08,0,0,1,279.16,448.17Z" transform="translate(-64 -308.55)"/><path class="cls-6" d="M312.37,404.5v-7.68a1.08,1.08,0,0,1,1.16-1.16h38.13a1.08,1.08,0,0,1,1.16,1.16v7.68a1.08,1.08,0,0,1-1.16,1.16H313.53A1.08,1.08,0,0,1,312.37,404.5Zm0,18.58a1.08,1.08,0,0,1,1.16-1.17h38.13a1.08,1.08,0,0,1,1.16,1.17v7.68a1.08,1.08,0,0,1-1.16,1.16H313.53a1.08,1.08,0,0,1-1.16-1.16Zm1.16,25.09h38.13a1.08,1.08,0,0,1,1.16,1.16V457a1.07,1.07,0,0,1-1.16,1.16H313.53a1.07,1.07,0,0,1-1.16-1.16v-7.68A1.08,1.08,0,0,1,313.53,448.17Z" transform="translate(-64 -308.55)"/><path class="cls-4" d="M359.73,457.19l17.59-28.13a4.09,4.09,0,0,0,0-4.29l-17.59-28.13c-.36-.62-.18-1,.54-1h10.18a2.05,2.05,0,0,1,1.78,1l37.87,60.55c.35.63.09,1-.54,1H399.38a2,2,0,0,1-1.78-1l-11.35-18.13c-.44-.62-.89-1-1.34-1s-.89.36-1.34,1l-11.34,18.13a2,2,0,0,1-1.78,1H360.27C359.55,458.17,359.37,457.82,359.73,457.19Zm28.93-46.26,8.94-14.29a2.05,2.05,0,0,1,1.78-1h10.18c.63,0,.89.36.54,1L395,420.75c-.35.63-.89.63-1.24,0l-5.1-7.86A2,2,0,0,1,388.66,410.93Z" transform="translate(-64 -308.55)"/><path class="cls-4" d="M415.65,396.82a1.08,1.08,0,0,1,1.16-1.16h8.4a1.08,1.08,0,0,1,1.16,1.16v7.68a1.08,1.08,0,0,1-1.16,1.16h-8.4a1.08,1.08,0,0,1-1.16-1.16Zm1.16,17.5h8.4a1.08,1.08,0,0,1,1.16,1.17V457a1.08,1.08,0,0,1-1.16,1.16h-8.4a1.08,1.08,0,0,1-1.16-1.16V415.49A1.08,1.08,0,0,1,416.81,414.32Z" transform="translate(-64 -308.55)"/><path class="cls-4" d="M464,394.23c16.08,0,32.15,10.9,32.15,32.69S480.08,459.6,464,459.6s-32.24-10.89-32.24-32.68S447.84,394.23,464,394.23Zm0,54.57c10.81,0,21.7-7.24,21.7-21.88S474.81,405,464,405s-21.7,7.23-21.7,21.88S453.11,448.8,464,448.8Zm-5.63-59.39,7.42-8.4a1,1,0,0,1,1.6-.09l2.15,2.24a1.06,1.06,0,0,1-.09,1.6l-9,7.15a1.08,1.08,0,0,1-1.61-.18l-.45-.63A1.35,1.35,0,0,1,458.37,389.41Z" transform="translate(-64 -308.55)"/><path class="cls-4" d="M552.54,457a1.08,1.08,0,0,1-1.16,1.16H550a3,3,0,0,1-1.88-.8L514,420.66c-.45-.44-.72-.62-1.07-.62s-.63.45-.63,1.34V457a1.08,1.08,0,0,1-1.16,1.16h-8.4a1.08,1.08,0,0,1-1.16-1.16V396.82a1.08,1.08,0,0,1,1.16-1.16H504a2.73,2.73,0,0,1,2,.89l45.81,49.3a3.43,3.43,0,0,1,.81,2Zm0-24.74c0,.72-.36.81-.81.27l-9.11-9.82a3.05,3.05,0,0,1-.8-2V396.82a1.08,1.08,0,0,1,1.16-1.16h8.4a1.08,1.08,0,0,1,1.16,1.16Z" transform="translate(-64 -308.55)"/></svg>