<?xml version="1.0" encoding="utf-8"?>
<!-- Generator: Adobe Illustrator 23.0.2, SVG Export Plug-In . SVG Version: 6.00 Build 0)  -->
<svg version="1.1" id="Capa_1" xmlns="http://www.w3.org/2000/svg" xmlns:xlink="http://www.w3.org/1999/xlink" x="0px" y="0px"
	 viewBox="0 0 1237.7 568.4" style="enable-background:new 0 0 1237.7 568.4;" xml:space="preserve">
<style type="text/css">
	.st0{fill:#0D0C0D;}
	.st1{fill:#F2190A;}
	.st2{fill:none;}
	.st3{enable-background:new    ;}
	.st4{font-family:'ArialMT';}
	.st5{font-size:41px;}
	.st6{font-size:37.538px;}
</style>
<g>
	<g>
		<polygon class="st0" points="1009.6,323.4 163.7,323.4 172.7,295.5 1018.5,295.5 		"/>
		<g>
			<path class="st0" d="M183,352.5c-3.5,0-6.4,0.6-8.7,1.8c-2.3,1.2-4.2,3.1-5.8,5.7c-0.6,1.1-1.2,2.6-1.8,4.7
				c-0.6,2-1.3,4.9-2.1,8.6c-1,4.8-1.6,8.2-2,10.2c-0.3,2-0.5,3.6-0.5,4.7c0,4.3,1.2,7.5,3.6,9.6c2.4,2.2,5.9,3.2,10.6,3.2
				c4.8,0,8.5-1.3,11.2-4c2.6-2.6,4.3-6.7,5.1-12.2h-9.9c-0.6,3.3-1.3,5.6-2.3,6.8c-1,1.3-2.3,1.9-4.1,1.9c-1.4,0-2.4-0.4-3.2-1.3
				c-0.7-0.9-1.1-2.2-1.1-3.8c0-1,0.2-2.4,0.5-4.4c0.3-1.9,0.7-4.3,1.3-7c0.8-3.5,1.4-6.3,1.8-8.3c0.5-2,0.9-3.4,1.1-4.3
				c0.6-1.8,1.4-3.1,2.2-3.9c0.9-0.7,1.9-1.1,3.3-1.1c1.4,0,2.4,0.4,3.1,1.1c0.7,0.8,1,1.9,1,3.5c0,0.2,0,0.6-0.1,1
				c0,0.5-0.1,1.4-0.3,2.8h9.7c0.1-0.8,0.2-1.5,0.3-2.2c0-0.7,0.1-1.3,0.1-1.9c0-3.8-1.1-6.7-3.3-8.6
				C190.7,353.4,187.4,352.5,183,352.5z"/>
			<path class="st0" d="M262.9,352.5c-3.6,0-6.6,0.6-8.9,1.8c-2.3,1.2-4.3,3.2-6,5.9c-0.6,1.1-1.3,2.8-2,5c-0.8,2.3-1.4,4.8-2.1,7.7
				c-0.8,3.3-1.3,6.3-1.7,8.9c-0.4,2.6-0.6,4.6-0.6,6.1c0,4.3,1.2,7.5,3.7,9.8c2.5,2.2,6.1,3.4,10.9,3.4c3.6,0,6.6-0.6,9-1.8
				c2.3-1.2,4.3-3.2,5.9-5.9c0.7-1.1,1.3-2.8,2-5c0.7-2.2,1.4-5.1,2.2-8.6c0.7-3.2,1.2-5.9,1.6-8.2c0.3-2.3,0.5-4.2,0.5-5.6
				c0-4.4-1.2-7.8-3.7-10C271.3,353.6,267.7,352.5,262.9,352.5z M267,369.7c-0.3,2-0.7,4.3-1.3,6.8c-0.8,3.7-1.4,6.5-1.9,8.4
				c-0.5,1.9-0.9,3.2-1.1,4c-0.7,1.8-1.5,3.1-2.5,3.9c-0.9,0.8-2.2,1.2-3.7,1.2c-1.7,0-2.9-0.4-3.8-1.3c-0.8-0.9-1.2-2.2-1.2-4
				c0-1,0.1-2.5,0.4-4.5c0.3-2,0.7-4.2,1.2-6.7c0.7-3.3,1.4-6.2,1.9-8.5c0.6-2.4,1-3.8,1.2-4.4c0.7-1.8,1.6-3.1,2.6-3.8
				c1-0.8,2.3-1.1,3.8-1.1c1.6,0,2.9,0.4,3.6,1.4c0.8,0.9,1.2,2.2,1.2,4.1C267.4,366.1,267.3,367.6,267,369.7z"/>
			<path class="st0" d="M352.8,373.4c-1.4,3-2.6,6-3.7,9s-2.1,6-2.9,9c0.2-1.8,0.4-3.4,0.5-4.8c0.1-1.4,0.2-2.6,0.2-3.6v-29.6H331
				l-10,47h9.2l5.6-27.8c0.7-3.5,1.2-6.2,1.6-8.3c0.4-2.1,0.7-4,1-5.6l0.3,41.7h10.9l11.2-25.3l1.6-3.6c2.5-5.8,4.4-10,5.5-12.6
				c-0.7,2.6-1.4,5.1-2,7.4s-1.1,4.6-1.5,6.6l-6.2,27.6h9.7l10-47h-15.6L352.8,373.4z"/>
			<path class="st0" d="M452.8,355.7c-2.5-1.7-6.7-2.5-12.7-2.5h-11.4l-10,47h9.9l4.1-19.2h5.3c4.2,0,7.4-0.4,9.6-1.1s4-2,5.3-3.7
				c1.1-1.5,2-3.2,2.6-5.3s0.9-4.3,0.9-6.8C456.5,360.2,455.3,357.4,452.8,355.7z M444.5,371.8c-1.4,1.3-3.6,2-6.5,2h-3.7l2.8-13.3
				h2.9c2.3,0,3.9,0.4,5,1.2c1,0.8,1.5,2,1.5,3.7C446.5,368.3,445.8,370.4,444.5,371.8z"/>
			<path class="st0" d="M522.8,384.3c-0.7,3.4-1.7,5.9-2.9,7.3c-1.2,1.5-2.8,2.2-4.8,2.2c-1.7,0-2.9-0.5-3.8-1.4
				c-0.9-0.9-1.3-2.3-1.3-4.1c0-0.4,0-0.9,0.1-1.5c0.1-0.6,0.2-1.2,0.3-1.8l6.7-31.8h-10l-6.7,31.8c-0.1,0.7-0.2,1.3-0.3,1.9
				c-0.1,0.6-0.1,1.2-0.1,1.9c0,3.9,1.2,6.9,3.8,9c2.5,2.1,6,3.2,10.6,3.2c2.7,0,5.2-0.4,7.4-1.1c2.2-0.7,4-1.8,5.5-3.2
				c1.2-1.1,2.2-2.7,3.1-4.7c0.9-2,1.6-4.5,2.3-7.6l6.6-31.2h-10L522.8,384.3z"/>
			<polygon class="st0" points="584.5,361.1 595,361.1 586.7,400.3 596.8,400.3 605.1,361.1 615.6,361.1 617.2,353.2 586.1,353.2 
							"/>
			<path class="st0" d="M673.7,353.2l-22.9,47h10.4l4.8-10.6h12.9l0.5,10.6h9.8l-2.7-47H673.7z M678.3,373.2c0,1.5,0.1,3.1,0.1,4.6
				l0.2,4.7h-9.5l5.6-12.3c0.8-1.8,1.6-3.6,2.2-5.2c0.6-1.6,1.2-3.2,1.7-4.7c-0.1,1.7-0.2,3.2-0.3,4.6c-0.1,1.4-0.1,2.6-0.1,3.7
				C678.3,370.2,678.3,371.7,678.3,373.2z"/>
			<path class="st0" d="M759.1,352.5c-3.5,0-6.4,0.6-8.7,1.8c-2.3,1.2-4.2,3.1-5.7,5.7c-0.6,1.1-1.2,2.6-1.8,4.7
				c-0.6,2-1.3,4.9-2.1,8.6c-1,4.8-1.7,8.2-2,10.2s-0.4,3.6-0.4,4.7c0,4.3,1.2,7.5,3.5,9.6c2.4,2.2,5.9,3.2,10.6,3.2
				c4.8,0,8.5-1.3,11.2-4c2.6-2.6,4.3-6.7,5.1-12.2h-9.9c-0.6,3.3-1.3,5.6-2.3,6.8c-1,1.3-2.3,1.9-4.1,1.9c-1.4,0-2.4-0.4-3.2-1.3
				c-0.7-0.9-1.1-2.2-1.1-3.8c0-1,0.2-2.4,0.4-4.4c0.3-1.9,0.7-4.3,1.3-7c0.8-3.5,1.4-6.3,1.9-8.3s0.9-3.4,1.1-4.3
				c0.6-1.8,1.3-3.1,2.2-3.9c0.8-0.7,1.9-1.1,3.3-1.1c1.4,0,2.4,0.4,3.1,1.1c0.7,0.8,1,1.9,1,3.5c0,0.2,0,0.6-0.1,1
				c0,0.5-0.1,1.4-0.3,2.8h9.7c0.1-0.8,0.2-1.5,0.2-2.2c0.1-0.7,0.1-1.3,0.1-1.9c0-3.8-1.1-6.7-3.3-8.6
				C766.7,353.4,763.5,352.5,759.1,352.5z"/>
			<polygon class="st0" points="815.2,400.3 825.1,400.3 835.1,353.2 825.2,353.2 			"/>
			<path class="st0" d="M900.3,352.5c-3.6,0-6.6,0.6-8.9,1.8c-2.3,1.2-4.3,3.2-6,5.9c-0.6,1.1-1.3,2.8-2,5c-0.7,2.3-1.4,4.8-2.1,7.7
				c-0.8,3.3-1.3,6.3-1.7,8.9c-0.4,2.6-0.6,4.6-0.6,6.1c0,4.3,1.3,7.5,3.7,9.8c2.5,2.2,6.1,3.4,10.9,3.4c3.7,0,6.6-0.6,9-1.8
				s4.3-3.2,5.9-5.9c0.7-1.1,1.4-2.8,2-5c0.7-2.2,1.4-5.1,2.2-8.6c0.7-3.2,1.2-5.9,1.6-8.2c0.4-2.3,0.5-4.2,0.5-5.6
				c0-4.4-1.2-7.8-3.7-10C908.7,353.6,905.1,352.5,900.3,352.5z M904.4,369.7c-0.3,2-0.7,4.3-1.3,6.8c-0.8,3.7-1.4,6.5-1.9,8.4
				c-0.5,1.9-0.9,3.2-1.2,4c-0.7,1.8-1.5,3.1-2.5,3.9s-2.2,1.2-3.7,1.2c-1.7,0-2.9-0.4-3.8-1.3c-0.8-0.9-1.2-2.2-1.2-4
				c0-1,0.1-2.5,0.4-4.5c0.3-2,0.7-4.2,1.2-6.7c0.7-3.3,1.3-6.2,1.9-8.5c0.6-2.4,1-3.8,1.2-4.4c0.7-1.8,1.6-3.1,2.6-3.8
				c1-0.8,2.3-1.1,3.8-1.1c1.6,0,2.8,0.4,3.6,1.4c0.8,0.9,1.2,2.2,1.2,4.1C904.8,366.1,904.7,367.6,904.4,369.7z"/>
			<path class="st0" d="M990.2,372.1c-0.9,4.3-1.6,8.2-2.1,11.5c-0.5,3.4-0.9,6.5-1.1,9.4c-0.3-3.6-0.9-8.9-1.7-15.9
				c-0.1-0.6-0.1-1.1-0.2-1.4l-3.1-22.5h-13.7l-10,47h9.2l3.8-18.9c0.7-3.4,1.3-6.8,1.9-10.3c0.6-3.4,1.1-6.9,1.5-10.4
				c0.1,3.9,0.7,9.3,1.7,16.3c0,0.4,0.1,0.6,0.1,0.8l3.1,22.4h13.7l10-47H994L990.2,372.1z"/>
			<polygon class="st1" points="219.7,262.1 280.8,34.9 194.3,34.9 185.7,73 232.9,73 180.3,262.1 			"/>
			<polygon class="st0" points="274.8,262.1 327.4,73 386.2,73 394.9,34.9 294.8,34.9 233.6,262.1 			"/>
			<path class="st0" d="M349.5,98.6l-44.4,163.6h48.1l25.6-92.9c6.7-21.8,25.8-27.9,49.3-27.1l-32.5,120h117.2l11.5-39.1h-72.9
				l5.6-21.7h59.7l10.8-36.6h-61l6.5-22.6h72.6v120.1h63.3l92.5-163.6h-50l-55.2,113v-113h-50.6l0,0H440.3H440l-0.1,0.3
				c-6.2,0.4-14.3,1.8-26.1,8.3c-8.3,4.6-16,11.1-25.2,22.8h-0.8l7.9-31.3h-46.2L349.5,98.6L349.5,98.6z"/>
			<polygon class="st0" points="712.9,262.1 757.3,98.6 709.2,98.6 664.8,262.1 			"/>
			<path class="st0" d="M1002,97.1c-72.6,0-83,35.3-98.6,90.4c-15.8,55.9-11.7,79.8,51.9,78.9c61.9,0.9,78.9-23.1,94-78.9
				C1064.8,129.6,1055.7,97.1,1002,97.1z M1009.8,156.1L995,209.7c-5.4,19.7-9.6,28.2-31.8,28.2c-23.3,0-23.2-8.6-17.8-28.2
				l14.8-53.6c4.2-15.1,8.4-30.5,34-30.5C1018.2,125.6,1013.9,141,1009.8,156.1z"/>
			<polygon class="st1" points="918.7,73.2 927.3,41.8 787,41.9 778.4,73.2 			"/>
			<path class="st0" d="M777.3,262.1l28.7-104c4-17.1,13.9-30.2,31.9-29.6c18,0.6,17.4,10.8,13.1,26.5l-29.6,107.1h48.1l34.2-124
				c9.4-28.8-9.4-41.1-36.8-41.1c-11.1,0-33.2,2.3-49.1,20.8h-0.7l4.6-19.4h-48.1L729.3,262L777.3,262.1L777.3,262.1z"/>
		</g>
	</g>
	<g>
		<path class="st0" d="M1106.1,73.1c0,16.3-12.8,29.1-29.5,29.1c-16.5,0-29.6-12.8-29.6-29.1c0-16,13.2-28.8,29.6-28.8
			C1093.2,44.3,1106.1,57.1,1106.1,73.1z M1054.3,73.1c0,12.8,9.5,23,22.4,23c12.6,0,21.9-10.2,21.9-22.8c0-12.8-9.3-23.2-22.1-23.2
			C1063.8,50.1,1054.3,60.5,1054.3,73.1z M1072,88.2h-6.7V59.4c2.6-0.5,6.3-0.9,11-0.9c5.4,0,7.9,0.9,10,2.1
			c1.6,1.2,2.8,3.5,2.8,6.3c0,3.2-2.4,5.6-6,6.7V74c2.8,1,4.4,3.2,5.3,7c0.9,4.4,1.4,6.1,2.1,7.2h-7.2c-0.9-1.1-1.4-3.7-2.3-7
			c-0.5-3.2-2.3-4.6-6-4.6h-3.2v11.6C1071.8,88.2,1072,88.2,1072,88.2z M1072.2,71.9h3.2c3.7,0,6.7-1.2,6.7-4.2
			c0-2.6-1.9-4.4-6.2-4.4c-1.7,0-3,0.2-3.7,0.4V71.9z"/>
	</g>
</g>
<rect x="-490.5" y="-317.2" class="st2" width="1522" height="144"/>
<text transform="matrix(1 0 0 1 -490.5273 -308.6479)" class="st4" style="font-size:12px;">A</text>
<text transform="matrix(1 0 0 1 99.2708 471.5273)" class="st3"><tspan x="0" y="0" class="st4 st5">Av. Murillo Vidal No.98 Fracc. Ensueño. Xalapa,Ver </tspan><tspan x="341.8" y="49.2" class="st4 st5">(228) 8179392</tspan><tspan x="469.4" y="98.4" class="st4 st5"> </tspan></text>
<image style="overflow:visible;" width="1000" height="1000" xlink:href="C:\Users\jbarrientos\Desktop\cartel maestro\580b57fcd9996e24bc43c543.png"  transform="matrix(4.347271e-02 0 0 4.347271e-02 963.8798 479.813)">
</image>
<text transform="matrix(1.0467 0 0 1 672.5146 521.2821)" class="st3"><tspan x="0" y="0" class="st4 st6">,  , </tspan><tspan x="52.1" y="0" class="st4 st5">2281425534</tspan><tspan x="0" y="45" class="st4 st6"> </tspan></text>
</svg>
